PathFileType	4	(X/Y/Z)	P:\Projects\LMB_grand_challenge_database\project_only\opensim\experimental_data\SixthCompetition/DM_ngait_og4_new.trc
DataRate	CameraRate	NumFrames	NumMarkers	Units	OrigDataRate	OrigDataStartFrame	OrigNumFrames
120	120	7	68	mm	120	187	374
Frame#	Time	Sternum			Neck			R_Shoulder			L_Shoulder			Xiphoid			Thoracic			R_Asis			L_Asis			R_Psis			L_Psis			Lumbar			R_Elbow			R_ElbowMedial			R_ShoulderAnterior			R_ShoulderPosterior			R_Wrist			R_Radius			R_Ulna			L_Elbow			L_ElbowMedial			L_ShoulderAnterior			L_ShoulderPosterior			L_Wrist			L_Ulna			L_Radius			L_Thigh_Superior			L_Thigh_Inferior			L_Thigh_Lateral			L_Knee_Lateral			L_Knee_Medial			L_Patella			L_Shank_Superior			L_Shank_Inferior			L_Shank_Lateral			L_Ankle_Lateral			L_Ankle_Medial			R_Thigh_Superior			R_Thigh_Inferior			R_Thigh_Lateral			R_Knee_Lateral			R_Knee_Medial			R_Patella			R_Shank_Superior			R_Shank_Inferior			R_Shank_Lateral			R_Ankle_Lateral			RankleMedial			R_Heel			R_Toe			R_Midfoot_Medial			R_Midfoot_Lateral			R_Hindfoot			R_Midfoot_Superior			R_ToeMedial			R_ToeLateral			L_Heel			L_Toe			L_Midfoot_Medial			L_Midfoot_Lateral			L_Hindfoot			L_Midfoot_Superior			L_ToeMedial			L_ToeLateral			Oglobal			Sacral			Xglobal			Yglobal			Zglobal			
		X1	Y1	Z1	X2	Y2	Z2	X3	Y3	Z3	X4	Y4	Z4	X5	Y5	Z5	X6	Y6	Z6	X7	Y7	Z7	X8	Y8	Z8	X9	Y9	Z9	X10	Y10	Z10	X11	Y11	Z11	X12	Y12	Z12	X13	Y13	Z13	X14	Y14	Z14	X15	Y15	Z15	X16	Y16	Z16	X17	Y17	Z17	X18	Y18	Z18	X19	Y19	Z19	X20	Y20	Z20	X21	Y21	Z21	X22	Y22	Z22	X23	Y23	Z23	X24	Y24	Z24	X25	Y25	Z25	X26	Y26	Z26	X27	Y27	Z27	X28	Y28	Z28	X29	Y29	Z29	X30	Y30	Z30	X31	Y31	Z31	X32	Y32	Z32	X33	Y33	Z33	X34	Y34	Z34	X35	Y35	Z35	X36	Y36	Z36	X37	Y37	Z37	X38	Y38	Z38	X39	Y39	Z39	X40	Y40	Z40	X41	Y41	Z41	X42	Y42	Z42	X43	Y43	Z43	X44	Y44	Z44	X45	Y45	Z45	X46	Y46	Z46	X47	Y47	Z47	X48	Y48	Z48	X49	Y49	Z49	X50	Y50	Z50	X51	Y51	Z51	X52	Y52	Z52	X53	Y53	Z53	X54	Y54	Z54	X55	Y55	Z55	X56	Y56	Z56	X57	Y57	Z57	X58	Y58	Z58	X59	Y59	Z59	X60	Y60	Z60	X61	Y61	Z61	X62	Y62	Z62	X63	Y63	Z63	X64	Y64	Z64	X65	Y65	Z65	X66	Y66	Z66	X67	Y67	Z67	X68	Y68	Z68	

188	3.783333	263.977	1353.46	94.50830000000001	99.9239	1433.89	113.115	215.295	1391.51	273.999	149.989	1398.4	-69.2679	281.211	1186.57	106.433	3.31412	1247.84	121.165	186.073	966.677	266.819	198.381	948.7910000000001	-6.0046	-12.2932	1003.73	152.495	-10.0883	996.5	74.0521	-6.8596	1049.25	109.547	199.896	1086.77	397.349	-0	0	0	-0	0	0	-0	0	0	331.624	843.587	363.647	323.594	854.4	320.915	287.998	835.451	380.706	9.785220000000001	1091	-152.854	-0	0	0	-0	0	0	-0	0	0	-37.7851	825.826	-172.728	-74.0304	856.5170000000001	-180.871	-25.5156	838.591	-127.609	173.526	791.335	-33.8609	274.844	591.628	18.9254	289.728	689.034	39.3186	-0	0	0	-0	0	0	339.034	527.847	81.7687	285.79	443.846	9.315469999999999	306.142	172.532	9.25117	331.057	304.799	80.2663	-0	0	0	-0	0	0	58.4626	791.516	301.712	2.56576	579.574	263.656	107.873	682.379	285.734	-0	0	0	-0	0	0	54.5894	459.768	208.793	-113.45	417.2	273.784	-213.728	234.115	263.901	-88.574	307.489	201.124	-0	0	0	-0	0	0	-347.854	139.227	205.685	-76.61709999999999	37.6598	227.38	-149.183	29.7051	168.93	-172.064	25.6906	283.877	-274.324	66.4063	263.07	-176.961	130.198	226.236	-109.121	32.2045	180.693	-123.049	32.7498	271.573	250.096	60.3091	70.6737	546.201	64.62949999999999	48.6587	473.217	43.5568	103.901	453.24	38.5908	-8.715529999999999	346.392	27.7834	7.51941	408.462	123.817	51.8516	512.5650000000001	45.0231	94.5347	506.516	44.0917	-0.368059	-0	0	0	-11.1907	1000.11	113.273	-200	0	0	-0	0	200	-0	200	0	
189	3.791667	273.655	1353.91	92.2777	109.577	1434.54	110.069	224.65	1392.55	271.832	159.952	1397.66	-71.7954	291.019	1187.27	104.841	12.8029	1248.57	119.616	195.725	966.886	265.09	208.093	950.524	-7.09069	-2.75221	1004.22	151.05	-0.725873	997.199	72.6643	2.60943	1049.86	108.587	205.682	1087.82	395.5	-0	0	0	-0	0	0	-0	0	0	334.482	842.865	363.209	327.096	853.552	320.228	290.878	835.157	380.083	20.6912	1089.47	-155.123	-0	0	0	-0	0	0	-0	0	0	-25.0321	824.357	-173.761	-61.8204	854.451	-182.421	-13.8215	837.115	-128.631	183.603	793.496	-35.9482	285.78	594.932	18.1101	298.886	692.575	41.4806	-0	0	0	-0	0	0	349.483	528.567	80.6288	295.549	444.834	9.406470000000001	309.341	173.304	9.570790000000001	336.481	305.084	80.5628	-0	0	0	-0	0	0	69.6772	790.426	299.616	16.4636	578.073	262.475	120.335	681.913	284.409	-0	0	0	-0	0	0	69.80549999999999	457.467	209.227	-100.669	418.351	273.139	-205.517	237.789	263.959	-78.0437	307.58	201.587	-0	0	0	-0	0	0	-341.381	148.522	206.083	-75.1632	35.4946	227.409	-147.614	30.7019	168.813	-170.699	27.0942	283.733	-270.908	72.2449	263.159	-170.966	132	226.635	-108.108	31.33	180.713	-121.777	32.0243	271.794	250.161	60.4121	70.7987	546.401	63.8548	49.1036	473.21	42.8058	104.067	453.268	38.2945	-8.574619999999999	346.454	27.8977	7.62629	409.021	123.569	52.2341	512.87	44.0356	95.0842	506.703	43.4416	-0.290919	-0	0	0	-1.73904	1000.71	111.857	-200	0	0	-0	0	200	-0	200	0	
190	3.8	283.149	1354.64	89.86490000000001	119.207	1435.46	107.413	234.336	1393.79	269.822	169.984	1396.91	-74.1824	300.317	1187.95	103.215	22.466	1249.38	118.332	205.271	966.58	263.115	217.296	952.3339999999999	-8.454829999999999	6.59376	1004.99	149.787	8.332129999999999	998.121	71.4372	11.9342	1050.7	107.842	211.029	1089.08	393.863	-0	0	0	-0	0	0	-0	0	0	337.025	842.419	362.88	330.038	852.825	319.824	293.072	835.237	379.558	32.1877	1087.93	-157.01	-0	0	0	-0	0	0	-0	0	0	-12.1682	822.832	-174.958	-49.2991	852.473	-183.81	-1.68959	835.669	-129.566	192.325	795.502	-38.4761	297.777	599.504	18.1519	307.675	697.42	42.3976	-0	0	0	-0	0	0	358.722	529.054	79.9134	304.326	445.996	9.538880000000001	311.896	174.637	9.828849999999999	340.92	305.633	80.9265	-0	0	0	-0	0	0	81.2437	789.062	297.663	31.3809	576.096	261.456	133.483	681.495	282.792	-0	0	0	-0	0	0	85.7323	455.367	209.26	-87.15900000000001	419.679	272.475	-196.306	241.737	263.821	-66.9034	307.893	201.561	-0	0	0	-0	0	0	-333.506	158.764	206.348	-73.59829999999999	33.1503	227.591	-146.332	30.3106	170.549	-169.364	29.5602	285.533	-267.558	79.8847	264.266	-164.154	133.511	226.951	-106.75	30.263	180.884	-120.659	31.4696	271.863	250.206	60.5391	70.82810000000001	546.62	62.9411	49.1609	473.187	42.1527	104.13	453.252	37.769	-8.51765	346.563	27.7931	7.638	409.579	123.278	52.2934	513.08	43.1641	95.0932	506.879	42.5341	-0.281942	-0	0	0	7.46294	1001.56	110.612	-200	0	0	-0	0	200	-0	200	0	
191	3.808333	292.495	1355.44	87.8884	128.804	1436.52	105.074	243.759	1395.39	267.88	180.054	1396.66	-76.3742	309.722	1189	101.971	31.4847	1250.68	117.18	214.241	967.303	261.808	226.173	953.928	-9.74949	15.5051	1005.99	148.679	17.1709	999.198	70.336	20.7735	1051.76	106.905	216.592	1090.68	391.911	-0	0	0	-0	0	0	-0	0	0	339.16	842.024	362.664	332.751	852.329	319.545	294.914	835.5650000000001	378.956	43.7061	1086.77	-159.072	-0	0	0	-0	0	0	-0	0	0	1.22623	821.249	-176.268	-35.9774	850.676	-185.445	11.3489	834.295	-130.692	200.447	796.718	-40.5431	309.353	604.162	18.4857	315.231	702.162	41.5531	-0	0	0	-0	0	0	366.756	529.302	78.9683	312.436	446.89	9.56087	314.099	175.854	9.76186	344.542	306.181	81.08969999999999	-0	0	0	-0	0	0	92.8839	787.779	295.702	46.444	574.356	260.665	147.105	681.41	281.024	-0	0	0	-0	0	0	102.871	453.693	209.217	-72.62909999999999	421.121	271.981	-186.24	246.078	263.496	-54.7989	308.488	201.47	-0	0	0	-0	0	0	-325.149	169.996	206.876	-72.21210000000001	31.0474	227.454	-144.773	32.7702	168.8	-167.453	31.7451	283.852	-261.968	87.1176	263.598	-156.536	135.888	226.61	-105.704	29.5747	180.881	-119.029	30.9315	271.954	250.304	60.6883	70.7764	546.976	61.8144	49.0177	473.223	41.4184	103.999	453.239	37.2038	-8.64608	346.556	27.7775	7.6291	410.123	122.913	52.2229	513.441	42.3481	94.9778	507.134	41.7488	-0.390388	-0	0	0	16.338	1002.59	109.507	-200	0	0	-0	0	200	-0	200	0	
192	3.816667	301.643	1356.34	86.069	138.337	1437.89	102.896	253.238	1397.06	265.884	189.997	1396.61	-78.3918	318.522	1190.05	100.487	40.6385	1251.91	116.112	223.164	967.631	260.475	235.086	956.085	-11.1554	24.4041	1006.99	147.624	25.9676	1000.27	69.2291	29.5481	1052.81	106.163	222.342	1092.63	390.036	-0	0	0	-0	0	0	-0	0	0	340.878	841.718	362.743	335.258	852.047	319.447	296.338	836.011	378.46	55.8524	1085.73	-161.145	-0	0	0	-0	0	0	-0	0	0	14.2306	819.481	-176.206	-22.1263	849.002	-187.087	24.7582	833.069	-131.796	208.122	797.111	-42.3125	319.534	607.5069999999999	18.996	322.18	705.578	39.6534	-0	0	0	-0	0	0	373.962	529	77.6951	319.321	447.588	9.09891	315.9	176.96	9.15729	348.306	306.399	80.8845	-0	0	0	-0	0	0	104.729	786.711	293.893	62.6397	572.5549999999999	260.215	160.651	681.7190000000001	279.38	-0	0	0	-0	0	0	119.228	452.195	208.906	-57.1757	422.734	271.023	-175.274	250.776	262.958	-42.7324	308.971	200.623	-0	0	0	-0	0	0	-314.781	181.639	206.552	-70.6878	29.6137	228.214	-142.423	34.2275	169.419	-164.97	35.3932	284.496	-256.757	95.8967	263.852	-148.157	138.259	226.427	-104.511	28.9201	180.983	-117.704	30.8721	271.965	250.363	60.811	70.5856	547.0599999999999	61.4439	49.002	473.227	41.1661	103.949	453.305	36.9595	-8.70777	346.596	27.8103	7.57133	410.437	122.809	52.0991	513.376	41.9233	95.0228	507.296	41.4706	-0.49297	-0	0	0	25.1858	1003.63	108.426	-200	0	0	-0	0	200	-0	200	0	
193	3.825	310.67	1357.21	84.458	147.552	1439.24	101.055	262.597	1398.73	264.14	200.088	1396.62	-80.0703	327.387	1191.3	99.4307	49.4133	1253.29	115.136	232.024	968.54	259.205	243.64	957.759	-12.799	33.1282	1008.03	146.637	34.634	1001.38	68.1819	38.1202	1053.91	105.207	227.698	1094.57	388.152	-0	0	0	-0	0	0	-0	0	0	342.471	841.405	362.356	337.443	851.682	319.338	297.78	836.466	377.657	68.2766	1084.66	-163.154	-0	0	0	-0	0	0	-0	0	0	28.5728	818.029	-177.214	-7.85494	847.25	-188.478	38.8075	831.848	-133.065	214.879	796.874	-43.5528	327.543	608.91	18.0505	329.748	709.1	37.8886	-0	0	0	-0	0	0	379.324	528.881	76.58969999999999	325.288	447.769	8.44163	317.365	177.309	8.75399	351.736	306.787	79.9753	-0	0	0	-0	0	0	116.762	785.518	292.233	78.86669999999999	571.04	259.551	174.558	682.056	277.811	-0	0	0	-0	0	0	135.473	451.67	208.404	-41.3045	424.51	270.26	-163.599	255.946	262.296	-29.1298	310.285	200.088	-0	0	0	-0	0	0	-303.595	194.091	206.118	-69.5932	28.6987	227.889	-140.352	36.5643	169.333	-162.568	39.5489	284.442	-250.416	105.093	263.814	-139.681	140.954	225.915	-103.291	29.3178	180.984	-116.22	31.7737	272.057	250.297	60.7409	70.6973	547.2859999999999	61.2322	48.963	473.18	40.8122	103.772	453.099	36.5647	-8.85507	346.558	27.7167	7.61768	410.678	122.605	51.9286	513.442	41.8781	95.1652	507.429	41.2268	-0.5765130000000001	-0	0	0	33.8811	1004.7	107.409	-200	0	0	-0	0	200	-0	200	0	
194	3.833333	319.483	1358.03	83.0532	156.475	1440.6	99.4208	271.659	1400.63	262.286	209.781	1397.01	-81.7246	335.885	1192.4	98.38800000000001	58.1904	1254.65	114.145	240.618	969.341	258.148	252.095	959.606	-14.3533	41.6787	1009.08	145.745	43.1213	1002.5	67.0916	46.5073	1055.02	104.376	233.599	1096.78	386.381	-0	0	0	-0	0	0	-0	0	0	343.73	841.13	362.345	339.548	851.545	319.111	298.633	836.919	377	81.0635	1083.67	-165.05	-0	0	0	-0	0	0	-0	0	0	43.6129	816.8099999999999	-178.548	7.01044	845.508	-189.844	53.623	830.789	-134.401	221.726	796.674	-45.2439	333.841	608.9640000000001	15.8705	337.123	711.556	36.1726	-0	0	0	-0	0	0	382.861	526.552	77.34269999999999	330.329	447.658	7.28747	318.446	177.087	8.349349999999999	354.774	306.453	79.21429999999999	-0	0	0	-0	0	0	128.901	784.534	290.558	94.9144	569.9829999999999	258.891	188.129	682.625	276.744	-0	0	0	-0	0	0	153.598	451.167	208.069	-24.6673	426.413	269.325	-151.694	261.53	261.447	-14.6187	312.515	199.872	-0	0	0	-0	0	0	-291.474	206.638	205.508	-67.6103	27.2165	227.755	-137.568	39.9289	168.941	-159.481	44.422	284.059	-243.28	114.982	263.24	-131.028	144.289	225.281	-101.285	30.2387	181.102	-113.902	33.4115	272.064	250.36	60.7304	70.6484	547.229	60.8355	48.9557	473.229	40.5457	103.659	453.102	36.2259	-8.95688	346.61	27.6498	7.63033	410.926	122.417	51.754	513.431	41.5465	95.1083	507.545	40.9183	-0.6269130000000001	-0	0	0	42.4	1005.79	106.418	-200	0	0	-0	0	200	-0	200	0	
